<svg width="72" height="72" viewBox="0 0 72 72" fill="none" xmlns="http://www.w3.org/2000/svg">
<path d="M72 36C72 55.8823 55.8823 72 36 72C16.1177 72 0 55.8823 0 36C0 16.1177 16.1177 0 36 0C55.8823 0 72 16.1177 72 36Z" fill="#284353"/>
<path d="M39.94 35.72C41.5 36.22 42.5 37.42 42.5 39.18C42.5 41.6 40.58 43 36.9 43H29.66V29H36.5C40 29 41.8 30.46 41.8 32.64C41.8 34.04 41.08 35.12 39.94 35.72ZM36.1 31.44H32.88V34.74H36.1C37.68 34.74 38.54 34.18 38.54 33.08C38.54 31.98 37.68 31.44 36.1 31.44ZM36.66 40.56C38.34 40.56 39.24 40.04 39.24 38.84C39.24 37.66 38.34 37.1 36.66 37.1H32.88V40.56H36.66Z" fill="white"/>
</svg>
