<svg width="419" height="419" viewBox="0 0 419 419" fill="none" xmlns="http://www.w3.org/2000/svg">
<path d="M209.5 296.792C214.447 296.792 218.596 295.116 221.948 291.764C225.3 288.412 226.97 284.269 226.959 279.334V209.5C226.959 204.554 225.283 200.41 221.931 197.07C218.579 193.73 214.435 192.054 209.5 192.042C204.565 192.03 200.422 193.706 197.07 197.07C193.718 200.434 192.042 204.577 192.042 209.5V279.334C192.042 284.28 193.718 288.429 197.07 291.781C200.422 295.133 204.565 296.804 209.5 296.792ZM209.5 157.125C214.447 157.125 218.596 155.449 221.948 152.097C225.3 148.745 226.97 144.602 226.959 139.667C226.947 134.732 225.271 130.589 221.931 127.237C218.59 123.885 214.447 122.209 209.5 122.209C204.554 122.209 200.41 123.885 197.07 127.237C193.73 130.589 192.054 134.732 192.042 139.667C192.03 144.602 193.706 148.751 197.07 152.115C200.434 155.478 204.577 157.149 209.5 157.125ZM209.5 384.084C185.35 384.084 162.654 379.498 141.413 370.327C120.172 361.155 101.695 348.719 85.9826 333.018C70.2701 317.317 57.834 298.84 48.6742 277.588C39.5144 256.335 34.9287 233.639 34.917 209.5C34.9054 185.361 39.4911 162.665 48.6742 141.413C57.8573 120.16 70.2934 101.683 85.9826 85.9826C101.672 70.2818 120.149 57.8456 141.413 48.6742C162.677 39.5027 185.373 34.917 209.5 34.917C233.628 34.917 256.324 39.5027 277.588 48.6742C298.852 57.8456 317.329 70.2818 333.018 85.9826C348.707 101.683 361.149 120.16 370.344 141.413C379.539 162.665 384.119 185.361 384.084 209.5C384.049 233.639 379.463 256.335 370.327 277.588C361.19 298.84 348.754 317.317 333.018 333.018C317.282 348.719 298.806 361.161 277.588 370.344C256.37 379.527 233.674 384.107 209.5 384.084ZM209.5 349.167C248.491 349.167 281.516 335.637 308.576 308.576C335.637 281.516 349.167 248.491 349.167 209.5C349.167 170.51 335.637 137.485 308.576 110.424C281.516 83.3639 248.491 69.8337 209.5 69.8337C170.51 69.8337 137.485 83.3639 110.424 110.424C83.3639 137.485 69.8337 170.51 69.8337 209.5C69.8337 248.491 83.3639 281.516 110.424 308.576C137.485 335.637 170.51 349.167 209.5 349.167Z" fill="black"/>
</svg>
