<svg width="500" height="532" viewBox="0 0 500 532" fill="none" xmlns="http://www.w3.org/2000/svg">
<path d="M500 250C500 388.071 388.071 500 250 500C111.929 500 0 388.071 0 250C0 177.198 31.1192 111.663 80.7814 65.9735C125.304 25.0118 184.731 0 250 0C388.071 0 500 111.929 500 250ZM37.5 250C37.5 367.361 132.639 462.5 250 462.5C367.361 462.5 462.5 367.361 462.5 250C462.5 132.639 367.361 37.5 250 37.5C191.467 37.5 138.461 61.166 100.029 99.4515C61.404 137.929 37.5 191.173 37.5 250Z" fill="#D9D9D9"/>
<path d="M349.5 532L243 345.25L141.75 532H47.25L196.5 267.25L100.029 99.4515L80.7814 65.9735L55.5 22H157.5L255.75 193L348 22H442.5L302.25 271.75L451.5 532H349.5Z" fill="#297676"/>
</svg>
